<?xml version="1.0" standalone="no"?>
<!DOCTYPE svg PUBLIC "-//W3C//DTD SVG 20010904//EN"
 "http://www.w3.org/TR/2001/REC-SVG-20010904/DTD/svg10.dtd">
<svg version="1.0" xmlns="http://www.w3.org/2000/svg"
 width="432.000000pt" height="392.000000pt" viewBox="0 0 432.000000 392.000000"
 preserveAspectRatio="xMidYMid meet">

<g transform="translate(0.000000,392.000000) scale(0.100000,-0.100000)"
fill="#ffffff" stroke="none">
<path d="M1860 3729 c-270 -18 -504 -101 -751 -268 -579 -389 -885 -1070 -794
-1764 44 -334 180 -651 394 -917 55 -69 71 -81 71 -56 0 20 46 165 71 223 l19
45 48 -44 c224 -209 545 -357 867 -399 197 -26 473 0 670 62 l70 22 -85 23
c-235 63 -460 199 -630 381 -110 118 -105 98 -60 247 l39 130 -21 40 c-12 23
-36 82 -53 131 l-31 90 -117 70 -116 70 -1 135 c0 213 -9 195 132 269 105 56
122 68 135 100 8 20 33 76 56 124 l41 88 -33 134 -33 134 20 28 c24 33 131
137 185 180 l38 30 136 -40 c122 -36 140 -39 167 -28 17 7 72 28 121 46 l90
33 75 123 75 124 109 3 108 3 135 -136 c125 -126 140 -137 211 -166 42 -16 92
-39 110 -49 17 -11 32 -16 32 -12 0 17 -95 172 -147 239 -112 147 -235 233
-390 274 -115 30 -356 37 -494 14 -613 -101 -1103 -586 -1234 -1220 -94 -457
33 -959 325 -1287 29 -32 48 -58 43 -58 -15 0 -145 79 -214 131 -88 65 -242
226 -302 317 -114 170 -198 376 -234 572 -26 144 -24 402 5 545 64 321 205
589 427 810 280 280 622 425 1005 428 l145 1 -75 12 c-106 16 -237 21 -360 13z"/>
<path d="M2561 2800 c-79 -17 -119 -61 -105 -115 10 -42 -24 -118 -158 -346
-324 -554 -376 -751 -237 -891 114 -115 381 -189 684 -190 214 -1 378 39 579
141 257 130 414 263 493 418 42 82 55 126 74 258 14 101 38 172 99 298 27 55
52 115 56 133 12 65 -27 117 -106 142 -55 18 -370 63 -383 55 -7 -3 -70 -50
-142 -103 -162 -120 -354 -283 -509 -431 -126 -120 -346 -354 -346 -368 0 -4
17 -13 39 -19 45 -14 91 -48 91 -67 0 -48 -137 -95 -280 -95 -166 0 -300 54
-270 109 14 28 81 59 144 67 l46 7 79 164 c44 90 103 205 132 256 69 124 242
384 319 481 34 43 58 82 53 86 -12 13 -301 21 -352 10z m784 -762 c31 -28 46
-84 34 -135 -8 -39 -48 -83 -75 -83 -9 0 -29 13 -45 29 -25 25 -29 37 -29 83
0 62 16 98 50 115 33 17 35 17 65 -9z"/>
<path d="M3825 1398 c-103 -67 -346 -168 -512 -214 -10 -2 -13 -40 -13 -146 0
-212 -38 -405 -110 -565 -52 -114 -32 -194 55 -223 49 -16 85 -5 157 47 235
170 390 408 454 699 19 88 26 377 9 405 -9 15 -13 14 -40 -3z"/>
<path d="M2436 1162 c12 -65 60 -187 99 -248 115 -183 321 -303 518 -304 69 0
111 19 132 60 26 50 19 89 -36 195 -36 72 -55 125 -67 187 l-17 88 -159 0
c-156 0 -315 17 -424 45 l-53 13 7 -36z"/>
</g>
</svg>
